<svg xmlns="http://www.w3.org/2000/svg" xmlns:xlink="http://www.w3.org/1999/xlink" version="1.1" x="0px" y="0px" viewBox="0 0 100 125" enable-background="new 0 0 100 100" xml:space="preserve"><g><path d="M50,18.032c-17.451,0-31.624,14.328-31.624,31.968c0,17.641,14.173,31.969,31.624,31.969   c17.45,0,31.624-14.328,31.624-31.969C81.624,32.359,67.45,18.032,50,18.032L50,18.032z M50,19.646   c16.61,0,30.056,13.563,30.056,30.354c0,16.792-13.445,30.383-30.056,30.383S19.972,66.791,19.972,50   C19.972,33.209,33.39,19.646,50,19.646L50,19.646z M49.775,25.507c-0.447,0.085-0.756,0.623-0.588,1.048   c0,0.057,0,0.198,0.027,0.312c0,0.283,0,0.679,0.029,1.161c0,0.963,0.027,2.35,0.027,3.936c0.027,3.228,0,7.419-0.027,11.609   c-0.029,8.41-0.084,16.707-0.084,16.707c0,0.424,0.363,0.793,0.783,0.793s0.813-0.369,0.785-0.793c0,0,0.084-8.27,0.111-16.679   c0-4.19,0.028-8.438,0.028-11.666c-0.028-1.585-0.028-2.945-0.056-3.936c0-0.481,0-0.906-0.028-1.189c0-0.17,0-0.283-0.028-0.368   c0-0.113,0.028-0.17-0.056-0.396c-0.112-0.34-0.477-0.595-0.841-0.538C49.832,25.507,49.804,25.507,49.775,25.507L49.775,25.507z    M50,67.584c-0.869,0-1.597,0.736-1.597,1.586c0,0.877,0.728,1.613,1.597,1.613c0.868,0,1.568-0.736,1.568-1.613   C51.568,68.32,50.868,67.584,50,67.584L50,67.584z"/></g><text x="0" y="115" fill="#000000" font-size="5px" font-weight="bold" font-family="'Helvetica Neue', Helvetica, Arial-Unicode, Arial, Sans-serif">Created by artworkbean</text><text x="0" y="120" fill="#000000" font-size="5px" font-weight="bold" font-family="'Helvetica Neue', Helvetica, Arial-Unicode, Arial, Sans-serif">from the Noun Project</text></svg>